<svg id="visual" viewBox="0 0 960 540" width="960" height="540" xmlns="http://www.w3.org/2000/svg" xmlns:xlink="http://www.w3.org/1999/xlink" version="1.1"><path d="M709 540L705.8 527.2C702.7 514.3 696.3 488.7 683.8 463C671.3 437.3 652.7 411.7 646.8 386C641 360.3 648 334.7 659.8 308.8C671.7 283 688.3 257 683 231.2C677.7 205.3 650.3 179.7 641 154C631.7 128.3 640.3 102.7 645.2 77C650 51.3 651 25.7 651.5 12.8L652 0L960 0L960 12.8C960 25.7 960 51.3 960 77C960 102.7 960 128.3 960 154C960 179.7 960 205.3 960 231.2C960 257 960 283 960 308.8C960 334.7 960 360.3 960 386C960 411.7 960 437.3 960 463C960 488.7 960 514.3 960 527.2L960 540Z" fill="#fdbb2d"></path><path d="M671 540L675.8 527.2C680.7 514.3 690.3 488.7 696.8 463C703.3 437.3 706.7 411.7 709.7 386C712.7 360.3 715.3 334.7 724.2 308.8C733 283 748 257 738.5 231.2C729 205.3 695 179.7 683.7 154C672.3 128.3 683.7 102.7 692.8 77C702 51.3 709 25.7 712.5 12.8L716 0L960 0L960 12.8C960 25.7 960 51.3 960 77C960 102.7 960 128.3 960 154C960 179.7 960 205.3 960 231.2C960 257 960 283 960 308.8C960 334.7 960 360.3 960 386C960 411.7 960 437.3 960 463C960 488.7 960 514.3 960 527.2L960 540Z" fill="#fc764c"></path><path d="M768 540L767.5 527.2C767 514.3 766 488.7 765.8 463C765.7 437.3 766.3 411.7 775.2 386C784 360.3 801 334.7 796.2 308.8C791.3 283 764.7 257 752.7 231.2C740.7 205.3 743.3 179.7 744.3 154C745.3 128.3 744.7 102.7 739.7 77C734.7 51.3 725.3 25.7 720.7 12.8L716 0L960 0L960 12.8C960 25.7 960 51.3 960 77C960 102.7 960 128.3 960 154C960 179.7 960 205.3 960 231.2C960 257 960 283 960 308.8C960 334.7 960 360.3 960 386C960 411.7 960 437.3 960 463C960 488.7 960 514.3 960 527.2L960 540Z" fill="#d1416c"></path><path d="M808 540L804.3 527.2C800.7 514.3 793.3 488.7 803.3 463C813.3 437.3 840.7 411.7 840 386C839.3 360.3 810.7 334.7 803.3 308.8C796 283 810 257 822.8 231.2C835.7 205.3 847.3 179.7 854.2 154C861 128.3 863 102.7 851.7 77C840.3 51.3 815.7 25.7 803.3 12.8L791 0L960 0L960 12.8C960 25.7 960 51.3 960 77C960 102.7 960 128.3 960 154C960 179.7 960 205.3 960 231.2C960 257 960 283 960 308.8C960 334.7 960 360.3 960 386C960 411.7 960 437.3 960 463C960 488.7 960 514.3 960 527.2L960 540Z" fill="#84307b"></path><path d="M884 540L878.7 527.2C873.3 514.3 862.7 488.7 868.3 463C874 437.3 896 411.7 902.2 386C908.3 360.3 898.7 334.7 890 308.8C881.3 283 873.7 257 874.3 231.2C875 205.3 884 179.7 891 154C898 128.3 903 102.7 896.7 77C890.3 51.3 872.7 25.7 863.8 12.8L855 0L960 0L960 12.8C960 25.7 960 51.3 960 77C960 102.7 960 128.3 960 154C960 179.7 960 205.3 960 231.2C960 257 960 283 960 308.8C960 334.7 960 360.3 960 386C960 411.7 960 437.3 960 463C960 488.7 960 514.3 960 527.2L960 540Z" fill="#1a2a6c"></path></svg>