<svg id="visual" viewBox="0 0 960 500" width="960" height="500" xmlns="http://www.w3.org/2000/svg" xmlns:xlink="http://www.w3.org/1999/xlink" version="1.1"><path d="M0 296L22.8 300.3C45.7 304.7 91.3 313.3 137 314.7C182.7 316 228.3 310 274 310.8C319.7 311.7 365.3 319.3 411.2 324.8C457 330.3 503 333.7 548.8 331.8C594.7 330 640.3 323 686 321.2C731.7 319.3 777.3 322.7 823 320.5C868.7 318.3 914.3 310.7 937.2 306.8L960 303L960 501L937.2 501C914.3 501 868.7 501 823 501C777.3 501 731.7 501 686 501C640.3 501 594.7 501 548.8 501C503 501 457 501 411.2 501C365.3 501 319.7 501 274 501C228.3 501 182.7 501 137 501C91.3 501 45.7 501 22.8 501L0 501Z" fill="#fdbb2d"></path><path d="M0 359L22.8 354.8C45.7 350.7 91.3 342.3 137 344.8C182.7 347.3 228.3 360.7 274 366.8C319.7 373 365.3 372 411.2 366.2C457 360.3 503 349.7 548.8 342.7C594.7 335.7 640.3 332.3 686 332.2C731.7 332 777.3 335 823 344.2C868.7 353.3 914.3 368.7 937.2 376.3L960 384L960 501L937.2 501C914.3 501 868.7 501 823 501C777.3 501 731.7 501 686 501C640.3 501 594.7 501 548.8 501C503 501 457 501 411.2 501C365.3 501 319.7 501 274 501C228.3 501 182.7 501 137 501C91.3 501 45.7 501 22.8 501L0 501Z" fill="#fc764c"></path><path d="M0 373L22.8 375.3C45.7 377.7 91.3 382.3 137 388C182.7 393.7 228.3 400.3 274 397.7C319.7 395 365.3 383 411.2 379.5C457 376 503 381 548.8 385.5C594.7 390 640.3 394 686 391.3C731.7 388.7 777.3 379.3 823 378.7C868.7 378 914.3 386 937.2 390L960 394L960 501L937.2 501C914.3 501 868.7 501 823 501C777.3 501 731.7 501 686 501C640.3 501 594.7 501 548.8 501C503 501 457 501 411.2 501C365.3 501 319.7 501 274 501C228.3 501 182.7 501 137 501C91.3 501 45.7 501 22.8 501L0 501Z" fill="#d1416c"></path><path d="M0 437L22.8 439.3C45.7 441.7 91.3 446.3 137 441C182.7 435.7 228.3 420.3 274 419.7C319.7 419 365.3 433 411.2 433.7C457 434.3 503 421.7 548.8 413.8C594.7 406 640.3 403 686 409.5C731.7 416 777.3 432 823 433.5C868.7 435 914.3 422 937.2 415.5L960 409L960 501L937.2 501C914.3 501 868.7 501 823 501C777.3 501 731.7 501 686 501C640.3 501 594.7 501 548.8 501C503 501 457 501 411.2 501C365.3 501 319.7 501 274 501C228.3 501 182.7 501 137 501C91.3 501 45.7 501 22.8 501L0 501Z" fill="#84307b"></path><path d="M0 445L22.8 449.5C45.7 454 91.3 463 137 466.7C182.7 470.3 228.3 468.7 274 465.8C319.7 463 365.3 459 411.2 455.5C457 452 503 449 548.8 452.5C594.7 456 640.3 466 686 470.5C731.7 475 777.3 474 823 470.5C868.7 467 914.3 461 937.2 458L960 455L960 501L937.2 501C914.3 501 868.7 501 823 501C777.3 501 731.7 501 686 501C640.3 501 594.7 501 548.8 501C503 501 457 501 411.2 501C365.3 501 319.7 501 274 501C228.3 501 182.7 501 137 501C91.3 501 45.7 501 22.8 501L0 501Z" fill="#1a2a6c"></path></svg>