<svg id="visual" viewBox="0 0 960 540" width="960" height="540" xmlns="http://www.w3.org/2000/svg" xmlns:xlink="http://www.w3.org/1999/xlink" version="1.1"><path d="M0 296L22.8 305C45.7 314 91.3 332 137 343.8C182.7 355.7 228.3 361.3 274 366C319.7 370.7 365.3 374.3 411.2 379.3C457 384.3 503 390.7 548.8 382.2C594.7 373.7 640.3 350.3 686 349.3C731.7 348.3 777.3 369.7 823 366.5C868.7 363.3 914.3 335.7 937.2 321.8L960 308L960 541L937.2 541C914.3 541 868.7 541 823 541C777.3 541 731.7 541 686 541C640.3 541 594.7 541 548.8 541C503 541 457 541 411.2 541C365.3 541 319.7 541 274 541C228.3 541 182.7 541 137 541C91.3 541 45.7 541 22.8 541L0 541Z" fill="#1a2a6c"></path><path d="M0 430L22.8 414.5C45.7 399 91.3 368 137 360.2C182.7 352.3 228.3 367.7 274 373C319.7 378.3 365.3 373.7 411.2 367.7C457 361.7 503 354.3 548.8 363.7C594.7 373 640.3 399 686 404.3C731.7 409.7 777.3 394.3 823 382C868.7 369.7 914.3 360.3 937.2 355.7L960 351L960 541L937.2 541C914.3 541 868.7 541 823 541C777.3 541 731.7 541 686 541C640.3 541 594.7 541 548.8 541C503 541 457 541 411.2 541C365.3 541 319.7 541 274 541C228.3 541 182.7 541 137 541C91.3 541 45.7 541 22.8 541L0 541Z" fill="#84307b"></path><path d="M0 438L22.8 433C45.7 428 91.3 418 137 418C182.7 418 228.3 428 274 429C319.7 430 365.3 422 411.2 414C457 406 503 398 548.8 405.7C594.7 413.3 640.3 436.7 686 436C731.7 435.3 777.3 410.7 823 401.2C868.7 391.7 914.3 397.3 937.2 400.2L960 403L960 541L937.2 541C914.3 541 868.7 541 823 541C777.3 541 731.7 541 686 541C640.3 541 594.7 541 548.8 541C503 541 457 541 411.2 541C365.3 541 319.7 541 274 541C228.3 541 182.7 541 137 541C91.3 541 45.7 541 22.8 541L0 541Z" fill="#d1416c"></path><path d="M0 459L22.8 456C45.7 453 91.3 447 137 447.3C182.7 447.7 228.3 454.3 274 462.2C319.7 470 365.3 479 411.2 478.3C457 477.7 503 467.3 548.8 468.3C594.7 469.3 640.3 481.7 686 488C731.7 494.3 777.3 494.7 823 483.2C868.7 471.7 914.3 448.3 937.2 436.7L960 425L960 541L937.2 541C914.3 541 868.7 541 823 541C777.3 541 731.7 541 686 541C640.3 541 594.7 541 548.8 541C503 541 457 541 411.2 541C365.3 541 319.7 541 274 541C228.3 541 182.7 541 137 541C91.3 541 45.7 541 22.8 541L0 541Z" fill="#fc764c"></path><path d="M0 498L22.8 498C45.7 498 91.3 498 137 495C182.7 492 228.3 486 274 486.5C319.7 487 365.3 494 411.2 496.8C457 499.7 503 498.3 548.8 500.7C594.7 503 640.3 509 686 513.2C731.7 517.3 777.3 519.7 823 511C868.7 502.3 914.3 482.7 937.2 472.8L960 463L960 541L937.2 541C914.3 541 868.7 541 823 541C777.3 541 731.7 541 686 541C640.3 541 594.7 541 548.8 541C503 541 457 541 411.2 541C365.3 541 319.7 541 274 541C228.3 541 182.7 541 137 541C91.3 541 45.7 541 22.8 541L0 541Z" fill="#fdbb2d"></path></svg>